<?xml version="1.0" standalone="no"?><!DOCTYPE svg PUBLIC "-//W3C//DTD SVG 1.1//EN" "http://www.w3.org/Graphics/SVG/1.1/DTD/svg11.dtd"><svg t="1649428137990" class="icon" viewBox="0 0 1024 1024" version="1.1" xmlns="http://www.w3.org/2000/svg" p-id="4342" xmlns:xlink="http://www.w3.org/1999/xlink" width="200" height="200"><defs><style type="text/css"></style></defs><path d="M864 853.333333a32 32 0 0 1 0 64H160a32 32 0 0 1 0-64z m-42.666667-746.666666c64.8 0 117.333333 52.533333 117.333334 117.333333v540.309333a42.666667 42.666667 0 0 1-78.336 23.402667L672.405333 501.344C628.48 522.816 574.912 533.333333 512 533.333333s-116.48-10.517333-160.405333-31.989333L163.669333 787.712A42.666667 42.666667 0 0 1 85.333333 764.309333V224c0-64.8 52.533333-117.333333 117.333334-117.333333h618.666666z" p-id="4343" fill="#ffffff"></path></svg>