<?xml version="1.0" standalone="no"?><!DOCTYPE svg PUBLIC "-//W3C//DTD SVG 1.1//EN" "http://www.w3.org/Graphics/SVG/1.1/DTD/svg11.dtd"><svg t="1649428300991" class="icon" viewBox="0 0 1024 1024" version="1.1" xmlns="http://www.w3.org/2000/svg" p-id="5529" xmlns:xlink="http://www.w3.org/1999/xlink" width="200" height="200"><defs><style type="text/css"></style></defs><path d="M857.134545 106.356364H301.149091A103.796364 103.796364 0 0 0 197.585455 209.454545v30.72H152.203636a103.796364 103.796364 0 0 0-103.563636 103.563637v452.421818a103.796364 103.796364 0 0 0 103.796364 103.563636h294.865454a34.909091 34.909091 0 0 0 0-69.818181H152.436364a33.978182 33.978182 0 0 1-33.978182-33.745455v-325.818182h475.461818a34.909091 34.909091 0 0 0 0-69.818182H118.458182v-56.32a33.745455 33.745455 0 0 1 33.745454-33.745454h555.985455a34.210909 34.210909 0 0 1 33.978182 33.978182v38.167272a34.909091 34.909091 0 0 0 69.818182 0V344.436364a103.796364 103.796364 0 0 0-103.796364-103.796364H267.403636V209.454545a33.745455 33.745455 0 0 1 33.745455-33.745454h555.985454A33.978182 33.978182 0 0 1 891.112727 209.454545v199.912728a34.909091 34.909091 0 0 0 69.818182 0V209.454545a103.796364 103.796364 0 0 0-103.796364-103.098181z" p-id="5530" fill="#ffffff"></path><path d="M881.338182 598.574545a29.090909 29.090909 0 0 0-25.134546-14.42909H707.490909a29.789091 29.789091 0 0 0-25.367273 14.42909l-74.24 128.93091a28.392727 28.392727 0 0 0 0 29.090909l74.24 128.930909a29.323636 29.323636 0 0 0 25.367273 14.661818h148.712727a28.858182 28.858182 0 0 0 25.134546-14.661818l74.472727-128.930909a28.392727 28.392727 0 0 0 0-29.090909z m-41.890909 243.432728h-115.2l-57.716364-99.84 57.716364-99.84h115.2l57.716363 99.84z" p-id="5531" fill="#ffffff"></path><path d="M781.963636 669.323636a72.843636 72.843636 0 1 0 72.610909 72.843637 72.843636 72.843636 0 0 0-72.610909-72.843637z m0 87.505455a14.661818 14.661818 0 0 1-14.661818-14.661818 14.661818 14.661818 0 1 1 14.661818 14.661818z" p-id="5532" fill="#ffffff"></path></svg>